<svg width="1600" height="2000" viewBox="0 0 1600 2000" fill="none" xmlns="http://www.w3.org/2000/svg">
  <rect width="1600" height="2000" fill="#FFFFFF"/>
  <rect width="1600" height="2000" fill="url(#bg)"/>
  <circle cx="1260" cy="360" r="320" fill="url(#glowOne)" opacity="0.8"/>
  <circle cx="380" cy="1540" r="420" fill="url(#glowTwo)" opacity="0.45"/>
  <rect x="112" y="130" width="1376" height="1740" rx="44" fill="url(#frame)" stroke="#0C295F"/>
  <rect x="228" y="236" width="1144" height="660" rx="28" fill="#F7F5F0" stroke="#0C295F"/>
  <rect x="270" y="278" width="336" height="576" rx="18" fill="url(#windowSoft)"/>
  <rect x="632" y="278" width="696" height="576" rx="18" fill="url(#windowStrong)"/>
  <rect x="270" y="922" width="1060" height="610" rx="32" fill="#FFFFFF" stroke="#0C295F"/>
  <rect x="1086" y="1050" width="162" height="390" rx="24" fill="#F7F5F0" stroke="#0C295F"/>
  <rect x="1110" y="1084" width="114" height="238" rx="16" fill="#667085"/>
  <rect x="1132" y="1328" width="70" height="80" rx="18" fill="#C62835"/>
  <path d="M896 1356C896 1234.49 994.493 1136 1116 1136V1136C1237.51 1136 1336 1234.49 1336 1356V1454H896V1356Z" fill="#FFFFFF" stroke="#0C295F"/>
  <rect x="944" y="1438" width="344" height="188" rx="30" fill="#F7F5F0" stroke="#0C295F"/>
  <path d="M486 1566C486 1421.3 603.303 1304 748 1304V1304C892.697 1304 1010 1421.3 1010 1566V1628H486V1566Z" fill="url(#cape)"/>
  <ellipse cx="744" cy="1238" rx="118" ry="136" fill="#667085"/>
  <ellipse cx="736" cy="1222" rx="96" ry="106" fill="#667085"/>
  <path d="M636 1224C652 1152 696 1090 760 1090C818 1090 862 1142 876 1214C850 1184 812 1164 760 1164C712 1164 672 1184 636 1224Z" fill="#1F222E"/>
  <path d="M620 1512C666 1468 718 1442 782 1442C846 1442 904 1470 948 1512V1628H620V1512Z" fill="#1F222E" opacity="0.65"/>
  <path d="M446 1096C470 1032 532 990 600 990H650L560 1224H504L446 1096Z" fill="#F7F5F0" stroke="#0C295F"/>
  <rect x="508" y="946" width="244" height="48" rx="24" fill="#C62835"/>
  <circle cx="532" cy="970" r="8" fill="#FFFFFF"/>
  <circle cx="610" cy="970" r="8" fill="#FFFFFF"/>
  <circle cx="688" cy="970" r="8" fill="#FFFFFF"/>
  <rect x="274" y="1568" width="1052" height="150" rx="24" fill="url(#table)" stroke="#0C295F"/>
  <rect x="298" y="1604" width="458" height="26" rx="13" fill="#667085"/>
  <rect x="298" y="1650" width="356" height="20" rx="10" fill="#667085"/>
  <defs>
    <linearGradient id="bg" x1="0" y1="0" x2="1600" y2="2000" gradientUnits="userSpaceOnUse">
      <stop stop-color="#F7F5F0"/>
      <stop offset="1" stop-color="#F7F5F0"/>
    </linearGradient>
    <radialGradient id="glowOne" cx="0" cy="0" r="1" gradientUnits="userSpaceOnUse" gradientTransform="translate(1260 360) rotate(90) scale(320)">
      <stop stop-color="#C62835" stop-opacity="0.55"/>
      <stop offset="1" stop-color="#C62835" stop-opacity="0"/>
    </radialGradient>
    <radialGradient id="glowTwo" cx="0" cy="0" r="1" gradientUnits="userSpaceOnUse" gradientTransform="translate(380 1540) rotate(90) scale(420)">
      <stop stop-color="#C62835" stop-opacity="0.36"/>
      <stop offset="1" stop-color="#C62835" stop-opacity="0"/>
    </radialGradient>
    <linearGradient id="frame" x1="112" y1="130" x2="1488" y2="1870" gradientUnits="userSpaceOnUse">
      <stop stop-color="#F7F5F0"/>
      <stop offset="1" stop-color="#1F222E"/>
    </linearGradient>
    <linearGradient id="windowSoft" x1="438" y1="278" x2="438" y2="854" gradientUnits="userSpaceOnUse">
      <stop stop-color="#F7F5F0"/>
      <stop offset="1" stop-color="#F7F5F0"/>
    </linearGradient>
    <linearGradient id="windowStrong" x1="980" y1="278" x2="980" y2="854" gradientUnits="userSpaceOnUse">
      <stop stop-color="#C62835"/>
      <stop offset="0.55" stop-color="#0C295F"/>
      <stop offset="1" stop-color="#1F222E"/>
    </linearGradient>
    <linearGradient id="cape" x1="748" y1="1304" x2="748" y2="1628" gradientUnits="userSpaceOnUse">
      <stop stop-color="#C62835"/>
      <stop offset="1" stop-color="#0C295F"/>
    </linearGradient>
    <linearGradient id="table" x1="274" y1="1568" x2="1326" y2="1718" gradientUnits="userSpaceOnUse">
      <stop stop-color="#FFFFFF"/>
      <stop offset="1" stop-color="#1F222E"/>
    </linearGradient>
  </defs>
</svg>
