<svg width="1600" height="1100" viewBox="0 0 1600 1100" fill="none" xmlns="http://www.w3.org/2000/svg">
  <rect width="1600" height="1100" fill="#FFFFFF"/>
  <rect width="1600" height="1100" fill="url(#bg)"/>
  <circle cx="1258" cy="250" r="250" fill="url(#glow)"/>
  <rect x="76" y="76" width="1448" height="948" rx="36" fill="url(#panel)" stroke="#0C295F"/>
  <rect x="156" y="160" width="426" height="780" rx="28" fill="url(#wall)"/>
  <rect x="620" y="160" width="824" height="780" rx="28" fill="#FFFFFF" stroke="#0C295F"/>
  <rect x="684" y="218" width="692" height="312" rx="24" fill="url(#window)"/>
  <rect x="742" y="620" width="402" height="248" rx="28" fill="#FFFFFF" stroke="#0C295F"/>
  <path d="M822 866C822 762.171 906.171 678 1010 678V678C1113.83 678 1198 762.171 1198 866V888H822V866Z" fill="#FFFFFF" stroke="#0C295F"/>
  <ellipse cx="1010" cy="636" rx="118" ry="120" fill="#667085"/>
  <path d="M924 650C948 592 994 556 1042 556C1090 556 1132 588 1154 644C1122 614 1080 600 1032 600C990 600 952 614 924 650Z" fill="#F7F5F0"/>
  <path d="M894 812C944 768 996 748 1060 748C1118 748 1170 770 1218 812V888H894V812Z" fill="url(#cape)"/>
  <path d="M470 742C470 631.543 559.543 542 670 542V542C780.457 542 870 631.543 870 742V888H470V742Z" fill="#FFFFFF" stroke="#0C295F"/>
  <ellipse cx="670" cy="494" rx="104" ry="122" fill="#667085"/>
  <path d="M584 508C606 452 650 410 704 410C758 410 800 446 818 500C790 472 748 456 704 456C660 456 620 472 584 508Z" fill="#F7F5F0"/>
  <path d="M542 760C598 716 650 698 708 698C770 698 822 720 868 760V888H542V760Z" fill="#1F222E"/>
  <rect x="256" y="756" width="202" height="132" rx="24" fill="#FFFFFF" stroke="#0C295F"/>
  <rect x="290" y="794" width="84" height="52" rx="16" fill="#C62835"/>
  <rect x="388" y="794" width="34" height="52" rx="12" fill="#667085"/>
  <path d="M252 710C268 662 306 634 356 634H404L358 756H290L252 710Z" fill="#667085" stroke="#0C295F"/>
  <rect x="188" y="898" width="1224" height="70" rx="20" fill="#F7F5F0"/>
  <defs>
    <linearGradient id="bg" x1="0" y1="0" x2="1600" y2="1100" gradientUnits="userSpaceOnUse">
      <stop stop-color="#F7F5F0"/>
      <stop offset="1" stop-color="#FFFFFF"/>
    </linearGradient>
    <radialGradient id="glow" cx="0" cy="0" r="1" gradientUnits="userSpaceOnUse" gradientTransform="translate(1258 250) rotate(90) scale(250)">
      <stop stop-color="#C62835" stop-opacity="0.5"/>
      <stop offset="1" stop-color="#C62835" stop-opacity="0"/>
    </radialGradient>
    <linearGradient id="panel" x1="76" y1="76" x2="1524" y2="1024" gradientUnits="userSpaceOnUse">
      <stop stop-color="#F7F5F0"/>
      <stop offset="1" stop-color="#1F222E"/>
    </linearGradient>
    <linearGradient id="wall" x1="369" y1="160" x2="369" y2="940" gradientUnits="userSpaceOnUse">
      <stop stop-color="#F7F5F0"/>
      <stop offset="1" stop-color="#FFFFFF"/>
    </linearGradient>
    <linearGradient id="window" x1="1030" y1="218" x2="1030" y2="530" gradientUnits="userSpaceOnUse">
      <stop stop-color="#C62835"/>
      <stop offset="0.55" stop-color="#0C295F"/>
      <stop offset="1" stop-color="#1F222E"/>
    </linearGradient>
    <linearGradient id="cape" x1="1056" y1="748" x2="1056" y2="888" gradientUnits="userSpaceOnUse">
      <stop stop-color="#C62835"/>
      <stop offset="1" stop-color="#0C295F"/>
    </linearGradient>
  </defs>
</svg>
