<svg width="1600" height="1100" viewBox="0 0 1600 1100" fill="none" xmlns="http://www.w3.org/2000/svg">
  <rect width="1600" height="1100" fill="#080808"/>
  <rect width="1600" height="1100" fill="url(#bg)"/>
  <circle cx="1324" cy="210" r="220" fill="url(#glow)"/>
  <rect x="94" y="82" width="1412" height="936" rx="36" fill="url(#panel)" stroke="#5B4620"/>
  <rect x="156" y="150" width="1288" height="802" rx="28" fill="#111111"/>
  <rect x="220" y="216" width="1160" height="668" rx="26" fill="url(#table)"/>
  <rect x="270" y="264" width="398" height="236" rx="24" fill="#151515" stroke="#6C5430"/>
  <rect x="312" y="304" width="314" height="32" rx="16" fill="#2A2015"/>
  <rect x="312" y="356" width="248" height="22" rx="11" fill="#1C1C1C"/>
  <rect x="312" y="396" width="202" height="22" rx="11" fill="#1C1C1C"/>
  <rect x="784" y="296" width="430" height="430" rx="40" fill="#121212" stroke="#6C5430"/>
  <path d="M930 370C988 430 1050 492 1114 556" stroke="#D2AD69" stroke-width="26" stroke-linecap="round"/>
  <path d="M1114 370C1050 430 988 492 930 556" stroke="#D2AD69" stroke-width="26" stroke-linecap="round"/>
  <circle cx="900" cy="344" r="40" fill="#22180F" stroke="#D2AD69" stroke-width="18"/>
  <circle cx="1144" cy="344" r="40" fill="#22180F" stroke="#D2AD69" stroke-width="18"/>
  <rect x="280" y="632" width="560" height="180" rx="34" fill="#141414" stroke="#6B5431"/>
  <rect x="334" y="684" width="308" height="44" rx="22" fill="#D0A45E"/>
  <rect x="652" y="682" width="116" height="46" rx="18" fill="#2A2117"/>
  <rect x="944" y="776" width="268" height="54" rx="27" fill="#E0CFB0"/>
  <rect x="966" y="716" width="224" height="70" rx="24" fill="#C5A059"/>
  <rect x="1006" y="666" width="144" height="52" rx="16" fill="#2B2117"/>
  <circle cx="1250" cy="690" r="94" fill="#151515" stroke="#6B5431"/>
  <circle cx="1250" cy="690" r="58" fill="#C5A059"/>
  <rect x="1142" y="318" width="196" height="100" rx="28" fill="#171717" stroke="#6B5431"/>
  <rect x="1182" y="350" width="116" height="36" rx="18" fill="#C5A059"/>
  <defs>
    <linearGradient id="bg" x1="0" y1="0" x2="1600" y2="1100" gradientUnits="userSpaceOnUse">
      <stop stop-color="#121212"/>
      <stop offset="1" stop-color="#070707"/>
    </linearGradient>
    <radialGradient id="glow" cx="0" cy="0" r="1" gradientUnits="userSpaceOnUse" gradientTransform="translate(1324 210) rotate(90) scale(220)">
      <stop stop-color="#C5A059" stop-opacity="0.54"/>
      <stop offset="1" stop-color="#C5A059" stop-opacity="0"/>
    </radialGradient>
    <linearGradient id="panel" x1="94" y1="82" x2="1506" y2="1018" gradientUnits="userSpaceOnUse">
      <stop stop-color="#151515"/>
      <stop offset="1" stop-color="#0D0D0D"/>
    </linearGradient>
    <linearGradient id="table" x1="220" y1="216" x2="1380" y2="884" gradientUnits="userSpaceOnUse">
      <stop stop-color="#20160E"/>
      <stop offset="1" stop-color="#0F0F0F"/>
    </linearGradient>
  </defs>
</svg>
